<svg xmlns="http://www.w3.org/2000/svg" xmlns:xlink="http://www.w3.org/1999/xlink" version="1.1" x="0px" y="0px" viewBox="0 0 63 78.75" enable-background="new 0 0 63 63" xml:space="preserve"><g><path d="M49.8,35.8c-5.7-1.8-9.7-2.3-9.7-2.3l-4.6,9.9l-0.8-9H29l-1.3,9.3l-4.8-10.3c0,0-5.3,0.9-9.7,2.3   c-2.1,0.7-7.7,3.2-7.7,10.5v16.1h52V46.4C57.6,43.6,56.3,37.9,49.8,35.8z M30.7,36.5h2.2l0.9,10.6l-2.4,5.1l-2.3-5.1L30.7,36.5z    M55.5,60.5h-7v-8h-2v8h-30v-8h-2v8h-7V46.4c0-5.9,4.7-8.1,6.3-8.6c3.3-1,6-1.7,7.9-2L31.5,57l9.8-21.2c1.9,0.3,4.6,1,7.9,2   c1.6,0.5,6.3,2.7,6.3,8.6V60.5z"/><path d="M31.5,31.5c7.4,0,13-10.9,13-18c0-7.2-5.8-13-13-13c-7.2,0-13,5.8-13,13C18.5,20.6,24.1,31.5,31.5,31.5z M31.5,2.5   c4.8,0,8.8,3.1,10.4,7.3c-5.2,0.9-7.2-3.9-7.2-3.9s-4.9,6.4-13.8,4.8C22.1,6,26.4,2.5,31.5,2.5z M20.5,12.7c1,0.2,2.1,0.3,3.1,0.3   c3.9,0,7.7-1.4,10.7-4c1.9,2.3,5,3.4,8,2.7c0.1,0.6,0.2,1.2,0.2,1.7c0,6.2-5,16-11,16s-11-9.8-11-16C20.5,13.2,20.5,13,20.5,12.7z"/></g><text x="0" y="78" fill="#000000" font-size="5px" font-weight="bold" font-family="'Helvetica Neue', Helvetica, Arial-Unicode, Arial, Sans-serif">Created by Icon Fair</text><text x="0" y="83" fill="#000000" font-size="5px" font-weight="bold" font-family="'Helvetica Neue', Helvetica, Arial-Unicode, Arial, Sans-serif">from the Noun Project</text></svg>