<svg width="181" height="181" viewBox="0 0 181 181" fill="none" xmlns="http://www.w3.org/2000/svg">
<path d="M6.99146 57.1579V181H58.456V57.1579H6.99146ZM31.6556 162.9H20.9743V139.656H31.6556V162.9ZM31.6556 137.751H20.9743V129.367H31.6556V137.751ZM31.6556 107.647H20.9743V84.4032H31.6556V107.647ZM31.6556 82.4979H20.9743V74.1147H31.6556V82.4979ZM44.0848 162.9H33.4035V139.656H44.0848V162.9ZM44.0848 137.751H33.4035V129.367H44.0848V137.751ZM44.0848 107.647H33.4035V84.4032H44.0848V107.647ZM44.0848 82.4979H33.4035V74.1147H44.0848V82.4979Z" fill="#E2FBB7"/>
<path d="M122.544 57.1579V181H174.009V57.1579H122.544ZM147.402 162.9H136.721V139.656H147.402V162.9ZM147.402 137.751H136.721V129.367H147.402V137.751ZM147.402 107.647H136.721V84.4032H147.402V107.647ZM147.402 82.4979H136.721V74.1147H147.402V82.4979ZM160.026 162.9H149.344V139.656H160.026V162.9ZM160.026 137.751H149.344V129.367H160.026V137.751ZM160.026 107.647H149.344V84.4032H160.026V107.647ZM160.026 82.4979H149.344V74.1147H160.026V82.4979Z" fill="#E2FBB7"/>
<path d="M90.5 18.6716L60.3981 56.5863V181H120.602V56.5863L90.5 18.6716ZM91.471 82.4979V74.1147H102.152V82.4979H91.471ZM102.152 84.4032V107.647H91.471V84.4032H102.152ZM89.529 177.189H72.8273V125.176H89.529V177.189ZM89.529 107.647H78.8476V84.4032H89.529V107.647ZM89.529 82.4979H78.8476V74.1147H89.529V82.4979ZM80.4013 49.7274C80.4013 44.2021 84.868 39.82 90.5 39.82C96.132 39.82 100.599 44.2021 100.599 49.7274C100.599 55.2526 96.132 59.6347 90.5 59.6347C84.868 59.6347 80.4013 55.2526 80.4013 49.7274ZM108.173 177.189H91.471V125.176H108.173V177.189Z" fill="#E2FBB7"/>
<path d="M171.678 13.1463H45.4442V4.95368H47.1921V0H27.383V4.95368H28.9367V13.1463H9.32189L0 55.2526H58.8444L90.5 15.6232L122.156 55.2526H181L171.678 13.1463Z" fill="#E2FBB7"/>
</svg>
