<svg width="181" height="181" viewBox="0 0 181 181" fill="none" xmlns="http://www.w3.org/2000/svg">
<path d="M65.0557 97.7883C56.225 114.226 60.5769 128.431 66.93 134.416C68.8994 129.764 71.0913 125.298 73.4419 121.018L66.9618 104.58C66.644 103.774 67.057 102.875 67.8829 102.565C68.6771 102.254 69.5982 102.658 69.916 103.464L75.4431 117.483C78.0797 112.954 80.8749 108.674 83.7021 104.674L79.5408 86.1579C79.3502 85.3206 79.8902 84.4832 80.7479 84.2971C81.6056 84.111 82.4632 84.6382 82.654 85.4757L86.1799 101.262C90.1506 95.8965 94.0895 91.1512 97.7108 87.0574L97.0437 73.6282C97.0119 72.7597 97.679 72.0464 98.5683 71.9843C99.4261 71.8603 100.188 72.6046 100.22 73.4731L100.728 83.7389C108.035 75.8301 113.403 71.2089 113.562 71.0539C114.229 70.4957 115.245 70.5888 115.817 71.2089C116.389 71.8603 116.294 72.8528 115.658 73.411C115.499 73.535 110.226 78.0632 103.079 85.7857L113.784 85.3206C114.737 85.1654 115.404 85.9408 115.468 86.7782C115.499 87.6467 114.832 88.36 113.943 88.391L100.157 89.0422C96.5989 93.0432 92.7236 97.6954 88.8481 102.937L106.16 100.952C107.05 100.89 107.844 101.479 107.939 102.316C108.035 103.154 107.399 103.929 106.542 104.022L86.3705 106.348C83.5433 110.318 80.7797 114.598 78.1431 119.095L95.9319 116.893C96.8213 116.769 97.5836 117.389 97.7108 118.227C97.806 119.095 97.2024 119.871 96.3131 119.964L76.2373 122.445C73.8231 126.818 71.5994 131.346 69.6618 136.091C78.1113 138.231 91.2623 133.579 102.92 124.089C126.713 104.735 128.11 68.4797 128.142 60.7261C120.264 60.8813 83.4797 63.4864 65.0557 97.7883Z" fill="#E2FBB7"/>
<path d="M90.5 0L0 65.8746H26.3972C27.2865 65.8746 27.9854 66.5568 27.9854 67.4253V181H153.015V67.4253C153.015 66.5568 153.714 65.8746 154.603 65.8746H181L90.5 0ZM104.953 126.477C94.5025 134.975 83.0986 139.782 74.0455 139.782C72.0442 139.782 70.2018 139.472 68.4865 139.007C65.3418 147.194 63.0227 155.816 62.1016 164.748C62.038 165.555 61.3393 166.144 60.5451 166.144H60.3863C59.4968 166.051 58.8615 165.307 58.9568 164.438C59.9098 155.103 62.3558 146.047 65.6593 137.487C56.8602 130.353 53.1119 113.358 62.2604 96.3307C83.7975 56.2291 129.317 57.6246 129.762 57.6246C130.588 57.6557 131.255 58.307 131.287 59.1134C131.382 60.9121 132.78 103.867 104.953 126.477Z" fill="#E2FBB7"/>
</svg>
