<svg width="29" height="45" viewBox="0 0 29 45" fill="none" xmlns="http://www.w3.org/2000/svg">
<path d="M19.8969 31.5773L26.2474 21.6281C29.0489 17.2406 29.2375 11.8898 26.7504 7.3125C24.2633 2.73516 19.6873 0 14.5035 0C9.31968 0 4.74368 2.73516 2.25656 7.3125C-0.230546 11.8828 -0.0419179 17.2336 2.75958 21.6281L9.10311 31.5703C3.54204 32.5617 0 35.0508 0 38.0531C0.00698627 42.075 6.09901 45 14.5035 45C22.908 45 29 42.075 29 38.0531C29 35.0367 25.4649 32.5547 19.8969 31.5773ZM20.5257 13.2539C20.5257 16.5867 17.822 19.3008 14.5035 19.3008C11.185 19.3008 8.48133 16.5867 8.48133 13.2539C8.48133 9.91406 11.185 7.19297 14.5035 7.19297C17.822 7.19297 20.5257 9.90703 20.5257 13.2539ZM13.5114 38.475C13.728 38.8195 14.0983 39.0234 14.5035 39.0234C14.9157 39.0234 15.286 38.8195 15.4955 38.482L17.8848 34.7344C23.0267 35.3461 25.6047 37.1883 25.6047 38.0531C25.6047 39.1078 21.8251 41.5828 14.5035 41.5828C7.18188 41.5828 3.40231 39.1078 3.40231 38.0531C3.40231 37.1883 5.98025 35.3531 11.1221 34.7344L13.5114 38.475Z" fill="#E2FBB7"/>
</svg>
