<svg width="142" height="108" viewBox="0 0 142 108" fill="none" xmlns="http://www.w3.org/2000/svg">
<path d="M141.437 23.9784C141.437 23.4611 141.437 22.9696 141.437 22.504C141.437 22.4005 141.437 22.3229 141.437 22.2712C141.437 22.116 141.437 22.0125 141.437 21.9608V21.8056C140.611 7.26853 132.628 0 117.49 0H23.9475C8.24083 0 0.258333 7.8376 0 23.5128V23.668C0 23.7197 0 23.8232 0 23.9784L0.0774996 24.5992L0 83.1096C0 90.404 1.7825 96.0171 5.3475 99.9488C9.17083 104.708 15.3708 107.088 23.9475 107.088H117.49C126.015 107.088 132.241 104.708 136.167 99.9488C136.167 99.8453 136.193 99.7936 136.245 99.7936C139.707 95.9653 141.437 90.404 141.437 83.1096V23.9784ZM129.657 83.1096C129.657 83.8339 129.606 84.5323 129.502 85.2048L101.37 55.872L129.657 34.2216V83.1096ZM89.3575 50.2072C89.0992 50.3107 88.8408 50.4917 88.5825 50.7504L70.525 64.5632L12.09 20.952C12.9683 14.8475 16.9208 11.7952 23.9475 11.7952H117.49C124 11.7952 127.927 14.4336 129.27 19.7104L89.3575 50.2072ZM19.53 94.8272L50.7625 64.5632L67.0375 76.5912C68.0192 77.3672 69.1817 77.7552 70.525 77.7552C71.8683 77.7552 73.0825 77.3672 74.1675 76.5912L91.8375 63.0888L122.372 94.7496C120.926 95.1117 119.298 95.2928 117.49 95.2928H23.9475C22.2942 95.2928 20.8217 95.1376 19.53 94.8272ZM41.23 57.424L12.0125 85.748C11.8575 84.9203 11.78 84.0408 11.78 83.1096V35.4632L41.23 57.424Z" fill="white"/>
</svg>
