<svg width="181" height="181" viewBox="0 0 181 181" fill="none" xmlns="http://www.w3.org/2000/svg">
<path d="M153.244 173.619H27.7576C25.7183 173.619 24.0671 175.27 24.0671 177.31C24.0671 179.347 25.7183 181 27.7576 181H153.244C155.286 181 156.935 179.347 156.935 177.31C156.937 175.27 155.286 173.619 153.244 173.619Z" fill="#E2FBB7"/>
<path d="M177.312 158.164H153.956V110.751C153.956 109.362 153.178 108.091 151.937 107.461L114.112 88.2368V3.68912C114.112 2.40803 113.446 1.21342 112.354 0.543716C111.258 -0.125989 109.89 -0.180289 108.75 0.398915L68.9075 20.653C67.6686 21.2824 66.8883 22.5515 66.8883 23.9412V60.0932L29.0609 79.3215C27.824 79.949 27.0417 81.22 27.0417 82.6097V158.166H3.69043C1.65315 158.164 0 159.817 0 161.856C0 163.893 1.65315 165.547 3.69043 165.547H177.31C179.351 165.547 181 163.893 181 161.856C181.002 159.817 179.353 158.164 177.312 158.164ZM66.8903 158.164H34.4246V84.8742L66.8883 68.373L66.8903 158.164ZM106.731 90.4853C106.731 90.4873 106.731 90.4953 106.731 90.4974V158.166H74.2712V62.3577V26.2077L106.731 9.7044V90.4853ZM146.575 158.164H114.112V96.5146L146.573 113.016V158.164H146.575Z" fill="#E2FBB7"/>
<path d="M124.159 153.013C125.688 153.013 126.929 151.772 126.929 150.244V110.031C126.929 108.501 125.688 107.262 124.159 107.262C122.631 107.262 121.392 108.501 121.392 110.031V150.244C121.392 151.772 122.631 153.013 124.159 153.013Z" fill="#E2FBB7"/>
<path d="M136.528 153.013C138.056 153.013 139.297 151.772 139.297 150.244V121.718C139.297 120.188 138.056 118.949 136.528 118.949C134.999 118.949 133.76 120.188 133.76 121.718V150.244C133.76 151.772 135.001 153.013 136.528 153.013Z" fill="#E2FBB7"/>
<path d="M56.8447 153.013C58.3732 153.013 59.612 151.772 59.612 150.244V82.7726C59.612 81.2421 58.3732 80.0053 56.8447 80.0053C55.3163 80.0053 54.0774 81.2421 54.0774 82.7726V150.244C54.0754 151.772 55.3163 153.013 56.8447 153.013Z" fill="#E2FBB7"/>
<path d="M44.4741 153.013C46.0026 153.013 47.2414 151.772 47.2414 150.244V94.4593C47.2414 92.9288 46.0026 91.692 44.4741 91.692C42.9456 91.692 41.7068 92.9288 41.7068 94.4593V150.244C41.7068 151.772 42.9456 153.013 44.4741 153.013Z" fill="#E2FBB7"/>
<path d="M97.1922 153.013C98.7206 153.013 99.9595 151.772 99.9595 150.244V24.9869C99.9595 23.4565 98.7206 22.2196 97.1922 22.2196C95.6637 22.2196 94.4229 23.4565 94.4229 24.9869V150.244C94.4229 151.772 95.6637 153.013 97.1922 153.013Z" fill="#E2FBB7"/>
<path d="M83.812 153.013C85.3405 153.013 86.5793 151.772 86.5793 150.244V37.291C86.5793 35.7625 85.3405 34.5217 83.812 34.5217C82.2835 34.5217 81.0447 35.7625 81.0447 37.291V150.244C81.0447 151.772 82.2835 153.013 83.812 153.013Z" fill="#E2FBB7"/>
</svg>
