<svg width="181" height="181" viewBox="0 0 181 181" fill="none" xmlns="http://www.w3.org/2000/svg">
<path d="M61.1498 114.309H65.2867V108.106H64.1665V73.576C64.1665 71.8621 62.815 70.4748 61.1498 70.4748H39.3615C37.6963 70.4748 36.3448 71.8621 36.3448 73.576V108.106H35.2246V114.309H39.3615H61.1498ZM53.2723 108.106V89.2203H58.1332V108.106H53.2723ZM58.1332 76.6771V83.018H42.3781V76.6771H58.1332ZM42.3781 89.2203H47.239V108.106H42.3781V89.2203Z" fill="#E2FBB7"/>
<path d="M101.394 114.309H105.531V108.106H104.411V73.576C104.411 71.8621 103.059 70.4748 101.394 70.4748H79.6058C77.9406 70.4748 76.5892 71.8621 76.5892 73.576V108.106H75.469V114.309H79.6058H101.394ZM93.5167 108.106V89.2203H98.3776V108.106H93.5167ZM98.3776 76.6771V83.018H82.6225V76.6771H98.3776ZM82.6225 89.2203H87.4834V108.106H82.6225V89.2203Z" fill="#E2FBB7"/>
<path d="M141.638 114.309H145.775V108.106H144.655V73.576C144.655 71.8621 143.304 70.4748 141.638 70.4748H119.85C118.185 70.4748 116.833 71.8621 116.833 73.576V108.106H115.713V114.309H119.85H141.638ZM133.761 108.106V89.2203H138.622V108.106H133.761ZM138.622 76.6771V83.018H122.867V76.6771H138.622ZM122.867 89.2203H127.728V108.106H122.867V89.2203Z" fill="#E2FBB7"/>
<path d="M96.5012 59.3354H100.938V53.1331H99.5179V38.9733C99.5179 37.2594 98.1664 35.8721 96.5012 35.8721H84.4969C82.8317 35.8721 81.4802 37.2594 81.4802 38.9733V53.1331H80.0624V59.3354H84.4989H96.5012ZM87.5156 42.0765H93.4865V53.1352H87.5156V42.0765Z" fill="#E2FBB7"/>
<path d="M177.983 174.798H163.071V171.821V127.805H166.132V121.603H163.071V118.791V67.3116H166.132V61.1093H163.071V46.5835V38.9753H157.038V43.4823H113.734V33.9845V32.0556H116.343V25.8533H113.515C112.158 15.1647 103.914 6.69023 93.5167 5.29471V0H87.4833V5.29471C77.0859 6.69023 68.8423 15.1647 67.4848 25.8533H64.6572V32.0556H67.2656V33.9845V43.4823H23.9624V38.9753H17.9291V46.5835V61.1093H14.8681V67.3116H17.9291V118.791V121.603H14.8681V127.805H17.9291V171.821V174.798H3.01667C1.35147 174.798 0 176.185 0 177.899C0 179.613 1.35147 181 3.01667 181H20.9457H70.2823H78.9482H102.052H110.718H122.78H147.992H160.054H177.983C179.649 181 181 179.613 181 177.899C181 176.185 179.649 174.798 177.983 174.798ZM157.038 61.1093H146.624V49.6847H157.038V61.1093ZM113.734 49.6847H124.148V61.1093H113.734V49.6847ZM130.179 49.6847H140.591V61.1093H130.179V49.6847ZM90.5 11.2717C98.9527 11.2717 105.986 17.5794 107.419 25.8533H73.5805C75.0144 17.5794 82.0473 11.2717 90.5 11.2717ZM73.299 32.0556H80.7441V33.9845H86.7774V32.0556H94.2206V33.9845H100.254V32.0556H107.699V33.9845V46.5835V61.1093H73.299V46.5835V33.9845V32.0556ZM67.2656 61.1093H56.8541V49.6847H67.2676V61.1093H67.2656ZM23.9624 61.1093V49.6847H34.3739V61.1093H23.9624ZM40.4072 49.6847H50.8208V61.1093H40.4072V49.6847ZM23.9624 118.793V67.3137H70.2823H110.716H157.036V118.793V121.605H143.197V118.793H137.164V121.605H123.323V118.793H117.29V121.605H103.452V118.793H97.4182V121.605H83.5818V118.793H77.5484V121.605H63.708V118.793H57.6746V121.605H43.8342V118.793H37.8008V121.605H23.9624V118.793ZM73.299 171.821V136.713H107.699V171.821V174.798H105.066V142.519C105.066 140.805 103.715 139.418 102.05 139.418H78.9482C77.283 139.418 75.9315 140.805 75.9315 142.519V174.798H73.299V171.821ZM81.9648 145.62H87.4833V174.798H81.9648V145.62ZM93.5167 174.798V145.62H99.0351V174.798H93.5167ZM146.626 174.798V171.821H140.593V174.798H130.179V171.821H124.146V174.798H122.778H113.732V171.821V136.713H115.53V130.511H110.716H70.2823H65.4677V136.713H67.2656V171.821V174.798H57.9482V174.632H56.8541V171.821H50.8208V174.632H40.4072V171.821H34.3739V174.632H32.7389V174.798H23.9644V171.821V127.805H157.04V171.821V174.798H147.994H146.626Z" fill="#E2FBB7"/>
<path d="M57.9481 139.418H32.7368V145.62H57.9481V139.418Z" fill="#E2FBB7"/>
<path d="M57.9481 157.024H32.7368V163.226H57.9481V157.024Z" fill="#E2FBB7"/>
<path d="M147.992 139.418H122.78V145.62H147.992V139.418Z" fill="#E2FBB7"/>
<path d="M147.992 157.107H122.78V163.309H147.992V157.107Z" fill="#E2FBB7"/>
</svg>
