<svg width="181" height="181" viewBox="0 0 181 181" fill="none" xmlns="http://www.w3.org/2000/svg">
<path d="M87.3887 20.891C60.5261 36.4548 33.6681 52.0209 6.80552 67.5871C5.44704 68.4042 4.52588 69.7094 4.13741 71.1546C3.74428 72.6302 3.90712 74.2599 4.72127 75.6748L7.44289 80.4098C8.25705 81.7733 9.55738 82.6979 10.9973 83.0878C12.4674 83.4824 14.0911 83.3189 15.5007 82.5018C39.1416 68.8152 62.7755 55.1099 86.4117 41.4139C87.0375 41.0544 87.7795 41.0801 88.3657 41.4139C112.002 55.1099 135.636 68.8058 159.272 82.5018C160.689 83.3189 162.312 83.4824 163.782 83.0878C165.253 82.6909 166.576 81.7359 167.386 80.3257L170.058 75.6748C170.873 74.2599 171.035 72.6302 170.642 71.1546C170.247 69.679 169.295 68.3505 167.89 67.538L87.3887 20.891ZM85.4184 149.17C85.4184 148.079 86.3024 147.192 87.3887 147.192C88.475 147.192 89.359 148.079 89.359 149.17V177.045H105.365V135.131C105.365 131.325 103.814 127.862 101.32 125.355C98.8218 122.852 95.3721 121.294 91.5805 121.294H83.1993C79.4076 121.294 75.9579 122.852 73.4596 125.355C70.9659 127.862 69.4144 131.325 69.4144 135.131V177.045H85.4184V149.17ZM166.946 28.7453C166.176 30.1088 165.229 31.3556 164.136 32.453C163.043 33.5503 161.801 34.5006 160.442 35.2734C161.801 36.0486 163.043 36.9988 164.136 38.0962C165.229 39.1935 166.176 40.438 166.946 41.8015C167.718 40.4403 168.665 39.1935 169.758 38.0962C170.852 36.9988 172.094 36.0486 173.45 35.2734C172.092 34.5006 170.852 33.5503 169.758 32.453C168.665 31.3556 167.718 30.1088 166.946 28.7453ZM161.349 29.6559C163.185 27.8137 164.492 25.4276 165.015 22.7636C165.164 21.9977 165.76 21.3627 166.569 21.2039C167.635 20.9961 168.67 21.6942 168.877 22.7636C169.4 25.4276 170.707 27.8114 172.545 29.6559C174.383 31.5004 176.755 32.8102 179.41 33.3355C180.173 33.485 180.805 34.0827 180.964 34.8952C181.171 35.9645 180.475 37.0035 179.41 37.2113C176.755 37.7366 174.383 39.0488 172.545 40.8933C170.707 42.7378 169.4 45.1193 168.877 47.7833C168.728 48.5491 168.132 49.1842 167.323 49.3429C166.257 49.5507 165.222 48.8526 165.015 47.7833C164.492 45.1193 163.187 42.7378 161.349 40.8933C159.512 39.0488 157.137 37.7366 154.482 37.2113C153.719 37.0619 153.087 36.4642 152.929 35.6517C152.722 34.5823 153.417 33.5433 154.482 33.3355C157.137 32.8102 159.514 31.498 161.349 29.6559ZM118.799 7.55699C118.038 8.89717 117.103 10.1229 116.026 11.204C114.938 12.2966 113.716 13.2329 112.383 13.9964C113.719 14.7622 114.942 15.7008 116.022 16.7841C117.103 17.8605 118.038 19.0862 118.799 20.4287C119.562 19.0862 120.495 17.8605 121.572 16.7795C122.649 15.6984 123.87 14.7622 125.208 13.9964C123.87 13.2329 122.649 12.2943 121.572 11.2133L121.455 11.0872C120.427 10.0342 119.534 8.84814 118.799 7.55699ZM113.244 8.42087C115.058 6.59972 116.352 4.24158 116.868 1.59625C117.017 0.830432 117.613 0.195366 118.422 0.0365992C119.488 -0.171198 120.523 0.526907 120.73 1.59625C121.239 4.19488 122.491 6.511 124.249 8.31347L124.359 8.4162C126.178 10.242 128.525 11.5402 131.153 12.0585C131.916 12.2079 132.549 12.8056 132.707 13.6181C132.914 14.6875 132.219 15.7265 131.153 15.9343C128.525 16.4549 126.178 17.7507 124.359 19.5765C122.539 21.4024 121.248 23.7582 120.73 26.3965C120.581 27.1623 119.985 27.7974 119.176 27.9561C118.11 28.1639 117.075 27.4658 116.868 26.3965C116.352 23.7582 115.058 21.4024 113.239 19.5765C111.43 17.7507 109.083 16.4549 106.445 15.9343C105.682 15.7848 105.049 15.1871 104.891 14.3746C104.684 13.3053 105.379 12.2663 106.445 12.0585C109.08 11.5402 111.43 10.242 113.244 8.42087ZM118.059 107.669H124.245V101.46H118.059V107.669ZM128.185 107.669H134.37V101.46H128.185V107.669ZM134.37 111.624H128.185V117.832H134.37V111.624ZM124.245 111.624H118.059V117.832H124.245V111.624ZM40.4094 107.669H46.5947V101.46H40.4094V107.669ZM50.5352 107.669H56.7205V101.46H50.5352V107.669ZM56.7205 111.624H50.5352V117.832H56.7205V111.624ZM46.5947 111.624H40.4094V117.832H46.5947V111.624ZM116.089 97.5052C122.84 97.5052 129.59 97.5052 136.341 97.5052C137.427 97.5052 138.311 98.3924 138.311 99.4828C138.311 106.258 138.311 113.034 138.311 119.81C138.311 120.9 137.427 121.787 136.341 121.787C129.59 121.787 122.84 121.787 116.089 121.787C115.003 121.787 114.119 120.9 114.119 119.81C114.119 113.034 114.119 106.258 114.119 99.4828C114.119 98.3924 115.003 97.5052 116.089 97.5052ZM38.4391 97.5052C45.1897 97.5052 51.9402 97.5052 58.6907 97.5052C59.7771 97.5052 60.661 98.3924 60.661 99.4828C60.661 106.258 60.661 113.034 60.661 119.81C60.661 120.9 59.7771 121.787 58.6907 121.787C51.9402 121.787 45.1897 121.787 38.4391 121.787C37.3528 121.787 36.4688 120.9 36.4688 119.81C36.4688 113.034 36.4688 106.258 36.4688 99.4828C36.4688 98.3924 37.3528 97.5052 38.4391 97.5052ZM83.1993 117.339H91.5805C96.4515 117.339 100.883 119.343 104.093 122.562C107.31 125.794 109.306 130.241 109.306 135.131V177.045H150.661V82.0605L87.3887 45.3924L24.1192 82.0605V177.045H65.4739V135.131C65.4739 130.241 67.4697 125.794 70.6775 122.572C73.8969 119.343 78.3283 117.339 83.1993 117.339ZM24.3844 0.536246H62.0823C63.1686 0.536246 64.0526 1.42347 64.0526 2.51382V13.7909C64.0526 14.8813 63.1686 15.7685 62.0823 15.7685H57.3602V33.7394L86.4047 16.9079C86.9933 16.567 87.7446 16.5436 88.3727 16.9079L169.851 64.1245C172.206 65.4904 173.79 67.6968 174.443 70.1367C175.095 72.5835 174.818 75.2872 173.459 77.65L170.787 82.294C169.426 84.6544 167.227 86.2468 164.797 86.9029C162.359 87.5566 159.665 87.2788 157.311 85.9152L154.601 84.3439V179.022C154.601 180.113 153.717 181 152.631 181C109.136 181 65.6437 181 22.1489 181C21.0626 181 20.1787 180.113 20.1787 179.022V84.3439L17.4687 85.9152C15.1146 87.2788 12.4209 87.5566 9.98307 86.9029C7.58944 86.2585 5.42378 84.7058 4.06064 82.4014L1.32041 77.65C-0.0380686 75.2872 -0.314883 72.5835 0.336445 70.1367C0.978468 67.7341 2.5277 65.5604 4.81897 64.1923L29.1065 50.1134V15.7685H24.3844C23.2981 15.7685 22.4141 14.8813 22.4141 13.7909V2.51382C22.4141 1.42347 23.2981 0.536246 24.3844 0.536246ZM53.4196 15.7685H33.047V47.83L53.4196 36.0229V15.7685ZM60.112 4.4914H26.3547V11.8133C37.6063 11.8133 48.8604 11.8133 60.112 11.8133V4.4914Z" fill="#E2FBB7"/>
</svg>
