<svg width="98" height="151" viewBox="0 0 98 151" fill="none" xmlns="http://www.w3.org/2000/svg">
<path d="M66.75 105.538L88.0547 72.286C97.4531 57.622 98.0859 39.7385 89.7422 24.44C81.3984 9.1415 66.0469 0 48.6563 0C31.2656 0 15.9141 9.1415 7.57031 24.44C-0.773436 39.715 -0.140626 57.5985 9.25781 72.286L30.5391 105.515C11.8828 108.828 0 117.147 0 127.182C0.0234375 140.624 20.4609 150.4 48.6563 150.4C76.8516 150.4 97.2891 140.624 97.2891 127.182C97.2891 117.1 85.4297 108.805 66.75 105.538ZM68.8594 44.2975C68.8594 55.4365 59.7891 64.5075 48.6563 64.5075C37.5234 64.5075 28.4531 55.4365 28.4531 44.2975C28.4531 33.135 37.5234 24.0405 48.6563 24.0405C59.7891 24.0405 68.8594 33.1115 68.8594 44.2975ZM45.3281 128.592C46.0547 129.743 47.2969 130.425 48.6563 130.425C50.0391 130.425 51.2812 129.743 51.9844 128.615L60 116.09C77.25 118.134 85.8984 124.291 85.8984 127.182C85.8984 130.707 73.2187 138.979 48.6563 138.979C24.0938 138.979 11.4141 130.707 11.4141 127.182C11.4141 124.291 20.0625 118.158 37.3125 116.09L45.3281 128.592Z" fill="#F5F5F5"/>
</svg>
