<svg width="122" height="122" viewBox="0 0 122 122" fill="none" xmlns="http://www.w3.org/2000/svg">
<path fill-rule="evenodd" clip-rule="evenodd" d="M5.54108 6.86426C11.0734 -1.21259 19.5095 -2.68086 27.434 5.25673L31.3207 9.15049C43.4666 21.3158 37.3673 26.4899 29.6332 36.0756C27.2545 39.0243 26.8346 42.9194 28.5343 46.3197C38.2165 65.6911 55.5262 83.0305 74.8703 92.7257C78.2656 94.4279 82.1563 94.0061 85.0993 91.6252C94.6613 83.8877 99.8372 77.7712 111.985 89.9352L115.873 93.8289C121.183 99.1477 122.555 104.539 120.911 109.04C118.42 115.86 110.085 119.628 102.567 120.958C84.859 124.091 57.8684 117.338 30.9103 90.3394C3.95348 63.34 -2.50087 36.6096 0.786379 19.0498C1.69898 14.1705 3.36623 10.0401 5.54108 6.86426Z" fill="#F5F5F5"/>
</svg>
